<svg xmlns="http://www.w3.org/2000/svg" width="240.903" height="260.394" viewBox="0 0 240.903 260.394">
  <g id="怡沛02插畫" transform="translate(-799.787 -61.082)">
    <path id="Path_73" data-name="Path 73" d="M824.559,174.131l-.294-1.085a2.089,2.089,0,0,0-.1-.237,2.023,2.023,0,0,0,1.371-2.035,10.435,10.435,0,0,0,.477-2.865c.043-.44.063-.882.083-1.322a2.384,2.384,0,0,0,.993-.929l.133-.248a2.488,2.488,0,0,0-.878-3.348c-.137-.076-.263-.134-.392-.194.29-.989-1.018-5.147-1.122-5.552-.6-2.338-1.128-4.7-1.548-7.072a66.725,66.725,0,0,1-1.049-14.519,43.586,43.586,0,0,1,8.707-24.9c1.858-2.432-2.583-6.1-4.54-3.957-3.195.021-5.983-.455-9.112.531a3.694,3.694,0,0,0-.866.359c-.386.129-.733.752-1.11.888-1.482-2.248-6.041-2.376-6.507-.311l.143,1.489c-4.234,15.671-1.15,34.723,5.432,50.933a2.488,2.488,0,0,0,.089.938,121.421,121.421,0,0,0,5.615,15.319C821.227,178.6,825.266,176.74,824.559,174.131Zm-4.806-17.72c-.041-.234-.072-.472-.109-.708.012.051.022.1.034.155.045.185.085.393.127.6C819.789,156.438,819.771,156.426,819.753,156.411Zm201.664-4.6c-.084-.152-.188-.293-.285-.436a3.013,3.013,0,0,0-.7-.883,32.672,32.672,0,0,0-4.447-3.367q-4.137-3.067-8.277-6.127c-4.87-3.6-9.8-8.35-15.721-10.025a3.529,3.529,0,0,0-4.022,1.363,3.107,3.107,0,0,0-3.729,1.1q-12.7,15.692-25.4,31.385L946.95,179.508c-2.007,2.48-5.961,5.867-7.723,9.353-.619-.377-1.247-.738-1.874-1.1,1.226-2.773-.8-6.75-4.382-5.443a213.586,213.586,0,0,0-47.162,24.15c-1.664-3.2-5.013-6.364-7-8.946-.332-.431-.669-.857-1-1.285a3.21,3.21,0,0,0,1-1.138,5.661,5.661,0,0,0-1.8-7.323,6.944,6.944,0,0,0-.832-.928,5.357,5.357,0,0,0-6.24-.89,3.749,3.749,0,0,0-2.251.138,4.269,4.269,0,0,0-4.373,2.294,12.159,12.159,0,0,0-2.711-.152,49.245,49.245,0,0,1-13.332-.8c-8.191-1.769-15.951-3.975-24.363-2.323-2.7.53-4.014,4.765-1.728,6.543,2.155,1.675,3.07,4.127,4.294,6.4a193.058,193.058,0,0,1,7.508,26.2,3.373,3.373,0,0,0-1.243,2.163,165.552,165.552,0,0,1-8.526,30.3,8.567,8.567,0,0,0-1.727,2.624,14.646,14.646,0,0,0-1.084,4.168c-.615,1.394-1.238,2.786-1.894,4.164-.025.05-.055.085-.079.137-.2.43-.39.859-.586,1.29-2.05,4.519,4.527,8.519,6.758,3.957.188.116.369.237.572.343a12.11,12.11,0,0,0,7.632,1.043c.909.189,1.828.355,2.732.539l7.208,1.464a11.513,11.513,0,0,0,10.218-2.812,31.208,31.208,0,0,1,7.346-.028c5.72.9,11.407,2.1,17.1,3.152l34.524,6.38h0a34.894,34.894,0,0,0,9.08,5.787,224.812,224.812,0,0,0,22.825,9.141,9.8,9.8,0,0,0,4.947.44c2.171,2.946,7.942.832,6.9-3.5-.143-.6-.276-1.2-.413-1.8,1.947-4.164,1.463-9.719-2.434-12.993-.612-4.26-1.052-8.545-1.283-12.861-.332-6.235-1.281-14.388,2.526-19.77a318.636,318.636,0,0,0,66.031-90.38C1021.882,156.2,1022.335,153.5,1021.417,151.814Zm-189.23,41.942c-.031-.08-.062-.162-.092-.242.1.017.206.03.31.049C832.33,193.625,832.259,193.692,832.187,193.756Zm13.175,3.64c-.2-.292-.4-.577-.614-.859.3.062.6.117.9.176A6.184,6.184,0,0,0,845.361,197.4Zm84.8,12.393c1.244-1.3.317.5,0,0ZM943.8,254.365c-.087-.087-.169-.177-.257-.263.131-.318.271-.633.411-.945C943.9,253.558,943.845,253.96,943.8,254.365Zm11.3-46.911c1.148,1.363-.465,1.037,0,0Z" transform="translate(2.268 13.863)" fill="#daf4f7"/>
    <path id="Path_74" data-name="Path 74" d="M885.773,169.5c-2.582.406-5.192.639-7.805.837a28.327,28.327,0,0,0-6.556.535,2.235,2.235,0,0,0-1.725,2.468c-.05.03-.1.068-.143.1-.06-.285-.129-.569-.171-.859-.264-1.823-2.95-2.343-4.089-1.08-.07.078-.117.146-.177.219a2.588,2.588,0,0,0-3.649,2.135c-.2,2.922,1.052,6.537,4.6,6.148a1.834,1.834,0,0,0,.652.961c-.152,1.723,2.125,3.357,3.753,2.317,3.134-2.005,7.117-2.724,9.769-5.46a2.307,2.307,0,0,0,.388-2.84c2.159-.2,4.313-.427,6.453-.763C890.177,173.73,888.859,169.013,885.773,169.5Z" transform="translate(19.362 34.038)" fill="#e8d9d1"/>
    <path id="Path_75" data-name="Path 75" d="M987.979,126.519a21.006,21.006,0,0,0-1.264-1.911,6.422,6.422,0,0,1-.9-5.3c.248-1.457-.372-3.3-2.051-3.611s-4.371.167-5.691-.723c-1.087-.733-1.1-2.359-2.227-3.277a4.341,4.341,0,0,0-3.435-.871c-.58.083-4.258,1.4-3.98,2.231a3.015,3.015,0,0,0-1.74-1.879c-.292-2.152-3.832-3.489-5.608-1.131a51.521,51.521,0,0,0-9.038,19.269,3.031,3.031,0,0,0,1.35,3.317c5.9,3.762,11.711,7.77,17.745,11.314,3.664,2.151,6.984,2.65,10.614.105,3.369-2.364,6.445-6.254,6.926-10.418A15.867,15.867,0,0,0,987.979,126.519Z" transform="translate(47.79 14.985)" fill="#ffecde"/>
    <path id="Path_76" data-name="Path 76" d="M834.042,92.693a2.9,2.9,0,0,0-4.587-.544,10.519,10.519,0,0,1-1.146-.008c-3.137-.226-4.137-1.177-5.969-3.23a2.956,2.956,0,0,0-4.907,1.3c.427-1.862-2.838-.353-3.506,0a28.432,28.432,0,0,0-5.719,4.435c-1.286,1.255-1.386,2.464-2.169,3.983-.895,1.739-2.523,2.426-3.615,3.987a2.924,2.924,0,0,0,0,2.963c1.359,2.491,4.1,4.556,6.064,6.555a2.649,2.649,0,0,0,3.212.565,11.1,11.1,0,0,0,4.01.836c3.336.08,6.727-.841,9.976-1.477,2.951-.578,6.066-1.057,8.534-2.919C839.783,104.941,836.849,97.742,834.042,92.693Z" transform="translate(0.702 8.471)" fill="#ffecde"/>
    <path id="Path_77" data-name="Path 77" d="M946.636,112.467a6.583,6.583,0,0,0-6.857.252,4.711,4.711,0,0,0-4.447-1.343c-1.4-2.757-4.624-3.233-7.211-2.1a6.688,6.688,0,0,0-6.39-2.12c-.725-3.424-4.181-4.833-7.137-4.229-1.332-3.072-5.121-4.053-7.94-2.932a6.1,6.1,0,0,0-.553-.3l0-.029a5,5,0,0,0-1.543-4.244c-1.49-3.029-5.511-4.714-8.346-2.873a5.485,5.485,0,0,0-5.591-1.76,5.6,5.6,0,0,0-5.715-.1c-.3.158-.59.33-.88.507a6.191,6.191,0,0,0-2.271-1.452c-6.439-2.406-12.838,5.384-16.694,9.555-1.13,1.221-2.213,2.482-3.259,3.773a6.028,6.028,0,0,0-6.167,2.422,87.131,87.131,0,0,0-16.7,54.414c.179,4.3.59,8.82,2.782,12.62,2.385,4.133,6.54,6.809,10.347,9.51a118.11,118.11,0,0,0,25.852,13.82,4.894,4.894,0,0,0,4.173-.088,6.655,6.655,0,0,0,1.31.242c13.388,1.122,27.7-3.294,39.912-8.431s22.905-13.882,26.663-27.012a5.325,5.325,0,0,0-2.687-6.444,38.558,38.558,0,0,0,4.317-12.469,6.936,6.936,0,0,0-1.01-5.035c2.54-6.593,5.578-13.1,6.052-20.264C957.036,110.483,950.005,109.2,946.636,112.467Z" transform="translate(12.273 8.86)" fill="#ffecde"/>
    <g id="Group_190" data-name="Group 190" transform="translate(813.069 123.503)">
      <path id="Path_78" data-name="Path 78" d="M823.208,171.866q-.292-.794-.589-1.6c.025,0,.05,0,.075,0a2.908,2.908,0,0,0,.459.1,2.766,2.766,0,0,0,2.878-1.82,3.442,3.442,0,0,0-.1-2.6,3.176,3.176,0,0,0,.837-3.7q-1.587-4.3-2.855-8.7a1.886,1.886,0,0,0,.871-2.095c-2.662-11.791-2.242-22.247-.2-34.03l1-.347a4.083,4.083,0,0,0,2.215-5.809c.435-.05.869-.112,1.3-.158,1.239-.131,1.252-2.091,0-1.957-.072.007-.142.017-.214.025a.445.445,0,0,0-.465-.512c-.448.014-.879.007-1.31-.013a2.842,2.842,0,0,0-.941-.067.491.491,0,0,0-.23.054,35.68,35.68,0,0,0-10.456,1.244c-1.7.409-3.908.83-3.983,2.691a1.021,1.021,0,0,0,.022.449c.012.092.02.181.039.279a36.143,36.143,0,0,0-1.51,14.31c.017,15.265,6.194,30.987,11.263,44.775C821.752,173.559,823.644,173.052,823.208,171.866Z" transform="translate(-809.895 -108.584)" fill="#00aed1"/>
      <path id="Path_79" data-name="Path 79" d="M822.754,184.462q2.712,10.181,5.423,20.361c.911,3.422,1.837,6.841,2.734,10.267,1.233,4.712.661,8.258-.988,12.664-2.4,6.407-4.514,12.915-6.309,19.515q-1.224,4.5-2.254,9.049-.617,2.73-1.166,5.473l-.356,1.83a2.644,2.644,0,0,0-.4,1.432.957.957,0,0,0-.335.256l-.212.248a1,1,0,0,0,0,1.384l.3.306a1.006,1.006,0,0,0,1.384,0,2.646,2.646,0,0,0,.427-.456,2.24,2.24,0,0,0,2.343,1.079,16.313,16.313,0,0,1,4.434-.133,7.32,7.32,0,0,0,3,.51,1.877,1.877,0,0,0,1.02-.319,12.421,12.421,0,0,0,11.783,1.465,10.661,10.661,0,0,0,8,.875c6.185-1.671,12.648.828,18.629,2.39l23.2,6.06,22.268,5.817a60.478,60.478,0,0,0,11.736,2.268,1.613,1.613,0,0,0,1.347,1.382c4.982.809,9.035,3.07,13.691,4.686a1.962,1.962,0,0,0,1.9-.5,3.878,3.878,0,0,0,.532-.607c.007.033.012.064.017.1.472,2.472,4.246,1.426,3.775-1.041a195.208,195.208,0,0,1-3.23-45.431,2.045,2.045,0,0,0-.021-.386.857.857,0,0,0,.473-.418l4.938-9.432a1.006,1.006,0,0,0,.1-.35c12.088-13.388,25.141-26.409,35.754-41,10.5-14.436,18.327-30.557,26.1-46.558a.951.951,0,0,0-.052-.949.887.887,0,0,0-.285-1.357c-8.66-4.615-17.25-9.363-24.009-16.62a1.007,1.007,0,0,0-1.185-.154,12.692,12.692,0,0,0-3.367,2.184.95.95,0,0,0-.4.239,412.658,412.658,0,0,0-37.87,43.53,29.189,29.189,0,0,0-3.328,3.332c-.7.752-1.375,1.526-2.059,2.289q-1.538.6-3.054,1.244a9.892,9.892,0,0,0-9.042-1.151c-16.126,5.112-30.486,13.515-44.079,23.451-.394.289-.766.6-1.127.92-3.12-4.669-6.4-8.562-11.183-11.633-.148-.095-.3-.183-.453-.276a30.145,30.145,0,0,0-3.6-4.309,2.8,2.8,0,0,0,1.134-.489,2.051,2.051,0,0,0,.9-2.21,4.491,4.491,0,0,0-.193-.594,20.875,20.875,0,0,1,4.067,2.326.98.98,0,0,0,1.339-.351,2.39,2.39,0,0,0-.247-2.431.928.928,0,0,0-.3-.38c-1.651-1.9-5.526-3.142-7.172-3.754a.921.921,0,0,0-1.179.717,4.745,4.745,0,0,0-1.322.506,22.581,22.581,0,0,0-4.152-.205c-.6.026-1.944.21-1.967.682-6.438-.666-11.5-1.315-17.941-1.888-.005-.486-.662-.72-1.285-.757l-8.812-.516c-.531-.03-1.242-.264-1.323.133-1.913-.127-3.409.322-5.323.223-.351-.018-.846-.616-1.018-.3-.373-.17-.633.482-1.02.486a.707.707,0,0,0-.681.858,6.046,6.046,0,0,0,.543,1.548,3.166,3.166,0,0,0,.377.779M836,223.592c.012-.063.018-.126.03-.189.005.064.008.13.012.2ZM936.56,285.3h0l0,0Zm4.876-.38h0v.005Zm5.827-50.5.032-.1.009.009Z" transform="translate(-807.156 -102.474)" fill="#00aed1"/>
    </g>
    <g id="Group_191" data-name="Group 191" transform="translate(821.846 68.228)">
      <path id="Path_80" data-name="Path 80" d="M884.073,123.908l-.01-.009.006.006Z" transform="translate(-795.379 -48.499)" fill="#7a6a56"/>
      <path id="Path_81" data-name="Path 81" d="M884.513,124.068l-.012,0,0,0Z" transform="translate(-795.241 -48.447)" fill="#7a6a56"/>
      <path id="Path_82" data-name="Path 82" d="M954.741,158.2c-1.758,2.664,2.356,12.94,4.859,10.413a128.864,128.864,0,0,0,17.07-21.25c4.548-7.222,6.055-21.066,5.076-29.42-1.969-16.8-13.451-25.558-27.485-32.472-6.919-8.9-19.669-13.093-30.042-16.095-12.967-3.75-27.172-3.56-40.331-.845-12.075,2.491-23.742,8.071-32.117,17.294-8.455,9.309-11.054,20.334-12.344,32.377a2.974,2.974,0,0,0-2.813,1.246c-7.2,9.925-12.31,21.4-10.489,33.894,1.56,10.7,5.9,23.493,1.08,33.346q-1.315,1.287-2.66,2.543a5.623,5.623,0,0,0-1.728,1.424,1.152,1.152,0,0,0-.231.385q-2.789,2.517-5.7,4.9c-.721.591-.062,1.606.693,1.671.326.028.646.037.97.054a.775.775,0,0,0,.625.212l.4-.038a.9.9,0,0,0,.853.541l1.614-.028c2.761.745,5.066.365,7.863-.028.289-.041.569-.058.853-.084a10.93,10.93,0,0,0,2.239-.1,39.1,39.1,0,0,1,9.41,1.64,47.429,47.429,0,0,0,9.113,1.724c4.109.252,8.145-.815,12.234.021a2.89,2.89,0,0,0,2.267-.428l3.461.666a.5.5,0,0,0,.6-.427c.758.321,1.518.639,2.282.943.585.233.84-.714.26-.943q-2.669-1.062-5.277-2.26a2.528,2.528,0,0,0-2.029-3.213,23.137,23.137,0,0,0-3.484-.431,2.657,2.657,0,0,0-2.314-3c-.85-.095-1.693-.237-2.528-.41a2.437,2.437,0,0,0-.288-.445c-5.363-6.378-11.761-12.665-14.168-20.845-.1-9.016,1.071-17.791,1.815-26.782.031-.389.491-.506.354-.807a52.061,52.061,0,0,1,3.185-11.424c.765-1.636.463-3.344,1.343-4.94a.427.427,0,0,0,.381.068c.5-.148,1.008-.265,1.511-.372a1.98,1.98,0,0,0,1.192,2.374,42.906,42.906,0,0,0,13.477,3.8c1.424.164,2.3-1.264,2.447-2.447a42.4,42.4,0,0,1,16.3-28.351,2.341,2.341,0,0,0,.6-.689,5.248,5.248,0,0,0,.763-.083l.892-.181c-.106.409-.192.815-.268,1.219a2.565,2.565,0,0,0-.434.75,42.474,42.474,0,0,0,4.452,38.038c1.013,1.535,3.008,1.244,4.53,1.244,2.7,1.39,4.7,2.045,7.213,3.762a2.452,2.452,0,0,0,.664.315,6.428,6.428,0,0,0,2.813.806,2.465,2.465,0,0,0,2.447-2.447,2.5,2.5,0,0,0-2.365-2.436.13.13,0,0,1,.054.024.234.234,0,0,0-.061-.024c-.026,0-.05-.009-.075-.011-.312-.014-.062-.024.071.008-.1-.029-.268-.063-.332-.076-.079-.043-.156-.088-.234-.133.017.014.029.029.026.035s-.012-.018-.032-.038l-.051-.029c-.273-.164-.047-.051.046.024-.059-.06-.163-.155-.2-.187-.057-.126-.143-.248-.2-.373-.419-.853.53-.957-.419-.853-.52-.325.053-.848-.474-1.16,2.756-.463,1.378-2.949.873-6.15a64.137,64.137,0,0,1-.033-19.641,4.486,4.486,0,0,0,1.54-.053,36.556,36.556,0,0,0,10.333,33.44,2.254,2.254,0,0,0,2.3.6,13.537,13.537,0,0,0,5.407,2.419c4.277,1.126,8.566,2.213,12.849,3.318a2.255,2.255,0,0,0,2.421-.771c2.984,1.365,5.924,3.093,9.126,3.756.426.5.993.311,1.445.8m-97.95-32.247a.461.461,0,0,0-.175-.055c-.029,0-.054,0-.083,0a.434.434,0,0,0,.035-.493,6.7,6.7,0,0,0,.636-1.1,2.615,2.615,0,0,0,.263,1.325A2.586,2.586,0,0,0,852.274,124.817Zm4.61-8.537c-.158.361-.311.724-.477,1.084a2.619,2.619,0,0,0-.246,1.071c-1.062,1.233-2.1,2.489-3.1,3.794a9.7,9.7,0,0,0,.38-1.69c.085-.641,1.045-.5.754-1.126.666-1.361,3.171-2.439,3.328-2.861.336-.907-.047-1.528.26-2.444.47.373-.987-2.57-.4-2.393-.912-.008-.428,3-.527,4A2.007,2.007,0,0,0,856.884,116.28Z" transform="translate(-816.574 -66.52)" fill="#7a6a56"/>
    </g>
    <path id="Path_83" data-name="Path 83" d="M886.492,155.966c-.782-1.335-2.745-1.815-4.1-2.315a41.5,41.5,0,0,0-6.147-1.723,2.783,2.783,0,0,0-2.151.558,2.5,2.5,0,0,0-2.928,1.053c-2.034,3.1,1.467,6.074,3.369,8.173a5.953,5.953,0,0,0,7.855,1.4C884.56,161.9,888.119,158.751,886.492,155.966Z" transform="translate(22.224 28.518)" fill="#ffcec7"/>
    <g id="Group_192" data-name="Group 192" transform="translate(856.497 164.985)">
      <path id="Path_84" data-name="Path 84" d="M861,142.851a1.941,1.941,0,0,0-1.288-1.486c-4.11-1.49-9.313-1.842-13.3.3-2.629,1.413-4.685,4.543-2.627,7.318,3.6,4.857,17.625,7.569,19.576-.25A4.829,4.829,0,0,0,861,142.851Z" transform="translate(-842.943 -140.152)" fill="#ffcec7"/>
      <path id="Path_85" data-name="Path 85" d="M917.265,155.289a4.9,4.9,0,0,0-2.141-3.081,10.553,10.553,0,0,0-4.955-2.74c-3.681-1.121-7.966-.928-9.979,1.951a6.1,6.1,0,0,0-.579,1.018c-.963,1.512-1.046,3.373.564,5.317,1.853,2.238,5.622,4.018,9.12,4.272.309.105.6.2.853.28a1.694,1.694,0,0,0,1.771-.367c.015,0,.032,0,.046,0a5.908,5.908,0,0,0,4.4-3.033A5.137,5.137,0,0,0,917.265,155.289Z" transform="translate(-825.364 -137.426)" fill="#ffcec7"/>
    </g>
    <g id="Group_193" data-name="Group 193" transform="translate(932.122 179.715)">
      <path id="Path_86" data-name="Path 86" d="M904.074,151.505a30.186,30.186,0,0,0-3.293,2.848.979.979,0,0,0,1.384,1.384,26.755,26.755,0,0,1,2.9-2.54,1.01,1.01,0,0,0,.351-1.339.985.985,0,0,0-1.339-.352Z" transform="translate(-900.494 -151.362)" fill="#ffbab3"/>
    </g>
    <g id="Group_194" data-name="Group 194" transform="translate(937.607 180.541)">
      <path id="Path_87" data-name="Path 87" d="M908.59,152.173a36.241,36.241,0,0,0-3.619,2.968c-.921.863.465,2.246,1.384,1.384a32.348,32.348,0,0,1,3.223-2.662c1.013-.729.037-2.428-.988-1.69Z" transform="translate(-904.668 -151.99)" fill="#ffbab3"/>
    </g>
    <g id="Group_195" data-name="Group 195" transform="translate(942.471 182.342)">
      <path id="Path_88" data-name="Path 88" d="M911.616,153.638l-2.948,2.817c-.913.873.473,2.255,1.384,1.384L913,155.022c.912-.871-.473-2.255-1.384-1.384Z" transform="translate(-908.369 -153.361)" fill="#ffbab3"/>
    </g>
    <g id="Group_196" data-name="Group 196" transform="translate(858.427 167.906)">
      <path id="Path_89" data-name="Path 89" d="M847.973,142.689l-3.3,3.7c-.837.937.543,2.326,1.384,1.384l3.3-3.7c.837-.937-.543-2.327-1.384-1.385Z" transform="translate(-844.412 -142.375)" fill="#ffbab3"/>
    </g>
    <g id="Group_197" data-name="Group 197" transform="translate(863.632 168.433)">
      <path id="Path_90" data-name="Path 90" d="M851.934,143.09l-3.3,3.7c-.837.937.543,2.326,1.384,1.385l3.3-3.7c.837-.937-.543-2.326-1.384-1.384Z" transform="translate(-848.373 -142.776)" fill="#ffbab3"/>
    </g>
    <g id="Group_198" data-name="Group 198" transform="translate(868.985 169.607)">
      <path id="Path_91" data-name="Path 91" d="M855.347,144.108l-2.727,3.947c-.717,1.039.978,2.02,1.69.988l2.727-3.947c.718-1.039-.979-2.02-1.69-.988Z" transform="translate(-852.447 -143.67)" fill="#ffbab3"/>
    </g>
    <g id="Group_199" data-name="Group 199" transform="translate(874.48 70.541)">
      <path id="Path_92" data-name="Path 92" d="M912.612,136.2c-1.758-2.2-3.79-3.986-5.083-6.565-1.727-3.443-1.578-6.808-1.112-10.535.336-2.689.807-5.371,1.315-8.03.113-.594.823-1.619.271-2.26l-.277-.321a1.6,1.6,0,0,0-2.229,0c-4.089,3.612-5.185,12.828-4.6,18,.576,5.1,3.959,11.331,8.547,13.821C912.193,141.8,914.4,138.452,912.612,136.2Z" transform="translate(-842.771 -55.794)" fill="#d6b89a"/>
      <path id="Path_93" data-name="Path 93" d="M883.742,76.38a9.754,9.754,0,0,0-3.071-.234,1.176,1.176,0,0,0-.238-.714c.091-.08.183-.154.272-.234a1.461,1.461,0,0,0-1.411-2.426l-.985.356c.415-.319.834-.629,1.246-.955,1.141-.9.049-2.385-1.046-2.524-3.752-.477-7.862.51-11.862,1.807,1.118-.589,2.26-1.173,3.413-1.825.585-.33.372-1.434-.364-1.346A20.049,20.049,0,0,0,857.027,74.9a1.525,1.525,0,0,0,1.472,2.528c4.554-1.29,10.172-3.8,15.343-4.625q-3.424,2.428-7.083,4.518c-1.446.827-.48,3.373,1.166,2.765q2.113-.783,4.225-1.57a1.511,1.511,0,0,0,2.158,1.452c.7-.314,1.394-.636,2.091-.953a1.411,1.411,0,0,0,2.055.882l4.54-.794C884.763,79.482,885.52,76.764,883.742,76.38Z" transform="translate(-856.628 -68.28)" fill="#d6b89a"/>
    </g>
    <g id="Group_200" data-name="Group 200" transform="translate(917.239 229.669)">
      <path id="Path_94" data-name="Path 94" d="M889.532,192.206a11.014,11.014,0,0,1,1.919,9.632c-.778,2.672-2.445,4.3-1.915,7.191.455,2.474,4.229,1.426,3.774-1.041-.246-1.342,1.359-3.339,1.775-4.619a14.641,14.641,0,0,0,.7-4.545,14.815,14.815,0,0,0-2.87-8.594c-1.459-2.025-4.857-.074-3.38,1.976Z" transform="translate(-889.168 -189.376)" fill="#daf4f7"/>
    </g>
    <g id="Group_201" data-name="Group 201" transform="translate(873.891 227.578)">
      <path id="Path_95" data-name="Path 95" d="M856.7,191.182a11.723,11.723,0,0,1,.565,14.9c-1.537,1.959,1.214,4.749,2.769,2.767a15.757,15.757,0,0,0-.566-20.438c-1.682-1.882-4.443.894-2.767,2.769Z" transform="translate(-856.18 -187.786)" fill="#daf4f7"/>
    </g>
    <g id="Group_202" data-name="Group 202" transform="translate(850.37 192.593)">
      <path id="Path_96" data-name="Path 96" d="M841.46,162.929a4.281,4.281,0,0,1-2.273,4.105c-2.071,1.135-.222,4.306,1.853,3.169a7.92,7.92,0,0,0,4.091-7.275c-.117-2.35-3.787-2.364-3.67,0Z" transform="translate(-838.281 -161.162)" fill="#515151"/>
    </g>
    <g id="Group_203" data-name="Group 203" transform="translate(834.329 179.76)">
      <path id="Path_97" data-name="Path 97" d="M833.891,153.681a13.29,13.29,0,0,1-6.9,14.93c-2.1,1.088-.243,4.256,1.851,3.168a16.986,16.986,0,0,0,8.585-19.074c-.556-2.3-4.1-1.323-3.54.975Z" transform="translate(-826.073 -151.396)" fill="#515151"/>
    </g>
    <g id="Group_204" data-name="Group 204" transform="translate(910.81 216.681)">
      <path id="Path_98" data-name="Path 98" d="M886.559,190.6q12.9-3.215,25.485-7.46c2.226-.75,1.271-4.3-.975-3.539q-12.6,4.248-25.486,7.46c-2.291.57-1.319,4.11.976,3.539Z" transform="translate(-884.275 -179.493)" fill="#515151"/>
    </g>
    <g id="Group_205" data-name="Group 205" transform="translate(855.563 214.495)">
      <path id="Path_99" data-name="Path 99" d="M865.664,186.056c-6.443-4.2-13.774-6.258-21.153-8.16-2.288-.591-3.264,2.947-.975,3.539,7.089,1.829,14.08,3.748,20.275,7.791,1.984,1.294,3.825-1.882,1.853-3.17Z" transform="translate(-842.232 -177.829)" fill="#515151"/>
    </g>
    <g id="Group_206" data-name="Group 206" transform="translate(913.284 228.402)">
      <path id="Path_100" data-name="Path 100" d="M888.63,191.209a12.152,12.152,0,0,1,.646,9.3c-.8,2.3-2.531,4.171-2.988,6.6a5.786,5.786,0,0,0,2.925,6.524c2.1,1.068,3.961-2.1,1.853-3.169-2.895-1.472,2.072-9.275,2.413-11.908a16.189,16.189,0,0,0-1.681-9.2c-1.009-2.134-4.175-.273-3.168,1.853Z" transform="translate(-886.158 -188.413)" fill="#515151"/>
    </g>
    <g id="Group_207" data-name="Group 207" transform="translate(915.1 250.615)">
      <path id="Path_101" data-name="Path 101" d="M890.319,208.883a2.058,2.058,0,0,1,.561.127c-.238-.108.173.159.039.053s.273.237.054.042l.1.164c-.046-.15-.037-.118.029.1l.842-2.072a.667.667,0,0,1-.468.08,2.145,2.145,0,0,1-.269-.072c.148.075.126.062-.07-.039q-.274-.179-.079-.035c-.145-.16-.171-.175-.08-.045a1.892,1.892,0,0,0-2.51-.658,1.847,1.847,0,0,0-.658,2.511,4.621,4.621,0,0,0,5.987,1.428,1.858,1.858,0,0,0,.844-2.074,4.261,4.261,0,0,0-3.347-3.046,1.9,1.9,0,0,0-2.257,1.283,1.849,1.849,0,0,0,1.282,2.258Z" transform="translate(-887.54 -205.317)" fill="#515151"/>
    </g>
    <g id="Group_208" data-name="Group 208" transform="translate(869.974 226.413)">
      <path id="Path_102" data-name="Path 102" d="M854.89,190.125a8.976,8.976,0,0,1,1.359,9.238c-.8,1.958-2.3,3.645-2.815,5.729-.712,2.884.175,5.869,2.928,7.212,2.113,1.033,3.976-2.131,1.852-3.168-3.159-1.543,2.311-9.736,2.451-12.541a13.231,13.231,0,0,0-3.179-9.064c-1.472-1.846-4.054.766-2.6,2.6Z" transform="translate(-853.199 -186.899)" fill="#515151"/>
    </g>
    <g id="Group_209" data-name="Group 209" transform="translate(871.856 248.264)">
      <path id="Path_103" data-name="Path 103" d="M856.948,204.06a9.67,9.67,0,0,0-2.314,5.848,1.85,1.85,0,0,0,2.761,1.585,9.147,9.147,0,0,0,3.57-3.8,1.857,1.857,0,0,0-1.585-2.761,3.763,3.763,0,0,0-3.639,2.627,1.865,1.865,0,0,0,.844,2.072,2.88,2.88,0,0,0,3.17-.06,2.922,2.922,0,0,0,1.267-3.146,1.875,1.875,0,0,0-1.769-1.348,3.344,3.344,0,0,0-3.384,4.176,1.873,1.873,0,0,0,1.77,1.347,3.823,3.823,0,0,0,3.888-3.12,1.9,1.9,0,0,0-.844-2.072,2.894,2.894,0,0,0-4.134,1.664,1.849,1.849,0,0,0,1.281,2.258,1.877,1.877,0,0,0,2.258-1.281.842.842,0,0,1-1.256.53l-.844-2.074c-.049.344.025.44-.349.426l1.77,1.347c.026.109-.07.252-.079.35-.016.158-.66.059-.078.121l-1.77-1.347a.9.9,0,0,1,.385-.95,1.326,1.326,0,0,1,.57.012l.842,2.072c.005-.012.058-.005.064,0,.047.059-.63.055.035.066l-1.585-2.762a5.645,5.645,0,0,1-2.252,2.48l2.761,1.585a5.519,5.519,0,0,1,1.239-3.252,1.887,1.887,0,0,0,0-2.6,1.849,1.849,0,0,0-2.6,0Z" transform="translate(-854.631 -203.528)" fill="#515151"/>
    </g>
    <g id="Group_210" data-name="Group 210" transform="translate(881.481 100.041)">
      <path id="Path_104" data-name="Path 104" d="M874.433,91.3c-9.679,10.256-18.879,27.167-6.512,39.261,1.69,1.653,4.286-.94,2.6-2.594-10.807-10.57-1.732-25.338,6.513-34.072,1.62-1.717-.97-4.317-2.6-2.6Z" transform="translate(-861.956 -90.73)" fill="#515151"/>
    </g>
    <g id="Group_211" data-name="Group 211" transform="translate(906.26 109.791)">
      <path id="Path_105" data-name="Path 105" d="M887.633,98.781a31.331,31.331,0,0,0,.373,39.491c1.511,1.819,4.1-.79,2.6-2.6a27.554,27.554,0,0,1-.373-34.3c1.458-1.829-1.122-4.443-2.6-2.6Z" transform="translate(-880.813 -98.149)" fill="#515151"/>
    </g>
    <g id="Group_212" data-name="Group 212" transform="translate(960.13 129.854)">
      <path id="Path_106" data-name="Path 106" d="M932.222,114.314a79.665,79.665,0,0,0-10.4,40.813c.039,2.359,3.71,2.367,3.67,0a75.821,75.821,0,0,1,9.9-38.961c1.166-2.058-2-3.911-3.17-1.853Z" transform="translate(-921.808 -113.418)" fill="#515151"/>
    </g>
    <g id="Group_213" data-name="Group 213" transform="translate(848.12 113.434)">
      <path id="Path_107" data-name="Path 107" d="M851.889,101.55a70.968,70.968,0,0,0-15.3,36.117c-.293,2.338,3.38,2.317,3.67,0a66.487,66.487,0,0,1,14.229-33.522c1.468-1.824-1.113-4.436-2.6-2.6Z" transform="translate(-836.568 -100.922)" fill="#515151"/>
    </g>
    <g id="Group_214" data-name="Group 214" transform="translate(939.404 144.989)">
      <path id="Path_108" data-name="Path 108" d="M909.534,181.956a345.721,345.721,0,0,1,46.624-53.915c1.724-1.622-.875-4.213-2.6-2.594a350.154,350.154,0,0,0-47.2,54.657c-1.355,1.941,1.825,3.777,3.17,1.852Z" transform="translate(-906.036 -124.935)" fill="#515151"/>
    </g>
    <g id="Group_215" data-name="Group 215" transform="translate(956.77 168.719)">
      <path id="Path_109" data-name="Path 109" d="M982.99,144.244c-13,35.765-38.185,63.214-63.246,90.938-1.581,1.748,1.007,4.351,2.6,2.594,25.519-28.23,50.953-56.147,64.19-92.556.808-2.223-2.737-3.183-3.54-.976Z" transform="translate(-919.251 -142.994)" fill="#515151"/>
    </g>
    <g id="Group_216" data-name="Group 216" transform="translate(995.906 143.158)">
      <path id="Path_110" data-name="Path 110" d="M949.619,126.627A105.372,105.372,0,0,0,976.43,144.25c2.134.974,4-2.188,1.853-3.169a102.158,102.158,0,0,1-26.068-17.049c-1.752-1.576-4.355,1.012-2.6,2.6Z" transform="translate(-949.034 -123.542)" fill="#515151"/>
    </g>
    <g id="Group_217" data-name="Group 217" transform="translate(953.09 269.062)">
      <path id="Path_111" data-name="Path 111" d="M916.471,221.66q3.349,24.108,5.912,48.314l3.419-.925-.942-1.784c-1.1-2.089-4.273-.237-3.169,1.853l.942,1.783c.813,1.539,3.615.911,3.42-.926q-2.622-24.692-6.043-49.289c-.323-2.33-3.859-1.339-3.539.975Z" transform="translate(-916.45 -219.355)" fill="#515151"/>
    </g>
    <g id="Group_218" data-name="Group 218" transform="translate(839.048 61.082)">
      <path id="Path_112" data-name="Path 112" d="M958.953,84.018c-16.786-20.754-48.844-25.39-73.811-21.862-25.465,3.6-49.939,20.07-55.432,46.444-.481,2.3,3.057,3.29,3.539.976,5.293-25.413,28.984-40.783,53.486-43.951,23.686-3.062,53.754,1.368,69.623,20.988,1.485,1.837,4.067-.774,2.6-2.6Z" transform="translate(-829.665 -61.082)" fill="#515151"/>
    </g>
    <g id="Group_219" data-name="Group 219" transform="translate(975.481 89.902)">
      <path id="Path_113" data-name="Path 113" d="M934.089,86.084a43.716,43.716,0,0,1,12.6,46.993c-.77,2.238,2.774,3.2,3.539.975a47.314,47.314,0,0,0-13.539-50.564c-1.775-1.544-4.381,1.042-2.6,2.6Z" transform="translate(-933.49 -83.014)" fill="#515151"/>
    </g>
    <g id="Group_220" data-name="Group 220" transform="translate(1002.613 120.123)">
      <path id="Path_114" data-name="Path 114" d="M957.827,119.242a13.768,13.768,0,0,1,2.435-6.336,10,10,0,0,1,2.208-2.313q1.236-1.618.916.526c1.087,2.6-1.248,5.844-.6,8.552.547,2.276,2.942,2.995,4.819,3.93,3.385,1.689,6.5,3.283,8.147,6.888.98,2.146,4.143.283,3.17-1.853-2.01-4.4-5.969-6.48-10.137-8.527-3.05-1.5-2-3.005-1.788-5.861.147-1.957.456-4.767-.512-6.578-1.532-2.867-4.577-1.474-6.463.138a17.615,17.615,0,0,0-5.865,11.434c-.313,2.332,3.36,2.31,3.67,0Z" transform="translate(-954.138 -106.013)" fill="#515151"/>
    </g>
    <g id="Group_221" data-name="Group 221" transform="translate(1015.7 122.573)">
      <path id="Path_115" data-name="Path 115" d="M967.172,114.311c1.194-1.356,1.812-2.566,3.633-1.861,2.085.809.658.636,1.2,2.179.445,1.262.476,2.451,1.92,3.112,1.122.515,2.293.064,3.447-.085a15.741,15.741,0,0,1,3.368-.442l-.135,1.524c.258,1.25-.761,3.623-1.013,4.824a1.867,1.867,0,0,0,1.77,2.323c5.736.363-.7,4.376,1.519,7.519.861,1.219,1.685.656,1.712,2.244.039,2.307-5.9,5.834-7.367,6.859-1.922,1.342-.091,4.524,1.853,3.17,3.03-2.114,7.063-4.591,9.108-7.716,1.752-2.677.643-3.849-.771-6.045-.484-.752-.547.009-.827-.917-.238-.784.993-2.4,1.238-3.017a4.161,4.161,0,0,0,.448-2.867c-.736-2.778-4.557-2.752-6.913-2.9l1.77,2.322c.5-2.38,2.652-7.313.93-9.661-2.117-2.886-6.526.6-8.327-1.97-.541-.77-.114-2.226-.863-3.2a5.03,5.03,0,0,0-2.615-1.657c-3.173-.84-5.748,1.468-7.681,3.662-1.554,1.767,1.032,4.373,2.6,2.6Z" transform="translate(-964.097 -107.877)" fill="#515151"/>
    </g>
    <g id="Group_222" data-name="Group 222" transform="translate(815.286 103.421)">
      <path id="Path_116" data-name="Path 116" d="M814.21,100.879a18.752,18.752,0,0,1,9.964-3.9c2.339-.187,2.359-3.858,0-3.67a22.181,22.181,0,0,0-11.817,4.4c-1.858,1.409-.032,4.6,1.853,3.17Z" transform="translate(-811.582 -93.302)" fill="#515151"/>
    </g>
    <g id="Group_223" data-name="Group 223" transform="translate(826.888 95.269)">
      <path id="Path_117" data-name="Path 117" d="M823.763,95.595l-.223-.272.537,1.3c-.185-1.459,1.051-3.4,1.84-4.577a6.608,6.608,0,0,0,.645-.876q.749-.524-.12-.477-.623-.317-.4.074c-.131.541.682,2.317.833,2.84.654,2.265,4.2,1.3,3.539-.975-.455-1.573-.717-3.7-2.022-4.841-1.514-1.322-3.265-.562-4.422.784-1.861,2.168-5.009,6.922-2.8,9.619,1.5,1.828,4.08-.782,2.6-2.6Z" transform="translate(-820.411 -87.098)" fill="#515151"/>
    </g>
    <g id="Group_224" data-name="Group 224" transform="translate(799.787 91.252)">
      <path id="Path_118" data-name="Path 118" d="M827.744,91.745c-1.623-2.3-3.137-5.457-5.359-7.2a1.966,1.966,0,0,0-2.225-.286c-2.336,1.038-3.314,5.844-4.009,7.963l3.355-.438c-1.426-1.882-3.933-5.213-6.756-4.474-2.95.771-2.716,4.855-3.038,7.2l2.7-1.1c-2.058-1.131-4.732-2.247-6.832-.515a4.012,4.012,0,0,0-1.486,3.242,6.4,6.4,0,0,0,.463,1.809l.185.439q.134,1.938,1.331,1.1,1.3-.392-.026-.209a6.25,6.25,0,0,0-.915.072,9.578,9.578,0,0,0-2.83.736,4.084,4.084,0,0,0-2.013,1.527c-1.552,2.523.879,5.664,2.515,7.488,1.581,1.762,4.17-.841,2.6-2.6-4.284-4.774,2.212-2.578,3.678-4.661a2.452,2.452,0,0,0,.372-1.665c-.005-.386-2.171-5.407,1.11-3.6.918.506,2.528.129,2.7-1.1.407-2.972.109-5.784,3.085-1.854a1.865,1.865,0,0,0,3.355-.438c.376-1.15,1.47-5.393,2.322-5.771l-2.223-.286c1.94,1.518,3.376,4.459,4.786,6.455,1.352,1.913,4.536.081,3.168-1.853Z" transform="translate(-799.787 -84.041)" fill="#515151"/>
    </g>
    <g id="Group_225" data-name="Group 225" transform="translate(807.843 116.82)">
      <path id="Path_119" data-name="Path 119" d="M808.212,110.366q9.43-2,18.979-3.309c2.33-.318,1.338-3.855-.975-3.539q-9.554,1.3-18.98,3.309c-2.309.49-1.331,4.029.976,3.539Z" transform="translate(-805.918 -103.499)" fill="#515151"/>
    </g>
    <g id="Group_226" data-name="Group 226" transform="translate(807.378 127.066)">
      <path id="Path_120" data-name="Path 120" d="M807.029,112.608c-4.376,18.556,1.765,40.774,8.945,57.912.9,2.146,4.452,1.2,3.54-.975-6.9-16.48-13.155-38.11-8.946-55.961.541-2.3-3-3.277-3.539-.976Z" transform="translate(-805.564 -111.296)" fill="#515151"/>
    </g>
    <g id="Group_227" data-name="Group 227" transform="translate(809.805 115.777)">
      <path id="Path_121" data-name="Path 121" d="M835.611,103.212c-9.4,8.745-14.895,24.878-13.576,37.485.816,7.808,3.456,15.41,3.342,23.313-.1,6.657-5.757,21.769-15.216,16.43-2.059-1.163-3.912,2.007-1.853,3.169,5.306,2.995,11.367.5,15.208-3.757,4.756-5.276,5.94-12.589,5.4-19.447-.762-9.712-4.737-19.285-3.085-29.112,1.488-8.85,5.729-19.306,12.373-25.486,1.733-1.612-.867-4.2-2.6-2.6Z" transform="translate(-807.411 -102.705)" fill="#515151"/>
    </g>
    <g id="Group_228" data-name="Group 228" transform="translate(874.15 205.348)">
      <path id="Path_122" data-name="Path 122" d="M857.184,174.374a58.977,58.977,0,0,1,12.336,11.884c1.451,1.862,4.031-.752,2.6-2.6A62.111,62.111,0,0,0,859.036,171.2c-1.928-1.372-3.762,1.809-1.853,3.17Z" transform="translate(-856.377 -170.868)" fill="#515151"/>
    </g>
    <g id="Group_229" data-name="Group 229" transform="translate(887.607 194.27)">
      <path id="Path_123" data-name="Path 123" d="M870.146,188.73c4.8-6.355,14.6-10.92,21.624-14.315a116.079,116.079,0,0,1,23.941-8.381c2.3-.543,1.326-4.083-.975-3.539a120.176,120.176,0,0,0-26.317,9.489c-7.372,3.7-16.375,8.184-21.443,14.894-1.424,1.886,1.761,3.716,3.17,1.853Z" transform="translate(-866.618 -162.438)" fill="#515151"/>
    </g>
    <g id="Group_230" data-name="Group 230" transform="translate(822.023 202.973)">
      <path id="Path_124" data-name="Path 124" d="M816.795,171.322q5.344,17.9,9.573,36.088c.535,2.3,4.073,1.326,3.539-.975q-4.228-18.193-9.573-36.088c-.674-2.258-4.218-1.3-3.539.975Z" transform="translate(-816.708 -169.061)" fill="#515151"/>
    </g>
    <g id="Group_231" data-name="Group 231" transform="translate(815.52 239.054)">
      <path id="Path_125" data-name="Path 125" d="M828.062,197.79l-7.805,23.83-3.6,11-1.8,5.5c-.625,1.909-1.07,5.474-2.342,7.026h2.6l-.222-.194.288,2.225.12-.2c1.231-2.022-1.942-3.87-3.168-1.852l-.121.2a1.854,1.854,0,0,0,.286,2.223l.222.194a1.857,1.857,0,0,0,2.6,0c1.892-2.307,2.365-5.836,3.286-8.645l4.5-13.748,8.706-26.581c.737-2.25-2.806-3.213-3.539-.975Z" transform="translate(-811.759 -196.518)" fill="#515151"/>
    </g>
    <g id="Group_232" data-name="Group 232" transform="translate(890.15 177.861)">
      <path id="Path_126" data-name="Path 126" d="M872.419,153.513c3.507.52,18.13,1.173,13.175,7.834a7.2,7.2,0,0,1-4.643,2.7c-2.191.434-3.242-.373-4.825-1.879-1.2-1.145-7.288-7.861-2.466-8.376,2.324-.248,2.349-3.921,0-3.67-11.932,1.273-.472,21,9.115,17.519,4.352-1.582,9.11-6.141,7.105-11.163-2.378-5.958-11.31-5.732-16.485-6.5-2.31-.343-3.307,3.193-.976,3.539Z" transform="translate(-868.553 -149.951)" fill="#515151"/>
    </g>
    <g id="Group_233" data-name="Group 233" transform="translate(864.928 127.044)">
      <path id="Path_127" data-name="Path 127" d="M860.534,111.294a20.244,20.244,0,0,0-10.255,2.357c-2.093,1.095-.239,4.264,1.853,3.168a16.43,16.43,0,0,1,8.4-1.855c2.363.089,2.359-3.581,0-3.67Z" transform="translate(-849.359 -111.279)" fill="#515151"/>
    </g>
    <g id="Group_234" data-name="Group 234" transform="translate(847.395 157.108)">
      <path id="Path_128" data-name="Path 128" d="M837.415,135.427c-3.688,11.122.239,22.653,8.028,31.014,8.593,9.227,20.624,13.958,32.179,18.273,2.216.828,3.172-2.717.976-3.539-18.277-6.827-45.762-20.293-37.644-44.774.745-2.247-2.8-3.21-3.539-.975Z" transform="translate(-836.017 -134.158)" fill="#515151"/>
    </g>
    <g id="Group_235" data-name="Group 235" transform="translate(925.781 164.654)">
      <path id="Path_129" data-name="Path 129" d="M897.346,144.768a20.643,20.643,0,0,1,6.792,3.962c2.36,2.067,5.836-1.38,3.46-3.46a26.945,26.945,0,0,0-8.951-5.221c-2.978-1.043-4.258,3.682-1.3,4.719Z" transform="translate(-895.669 -139.9)" fill="#515151"/>
    </g>
    <g id="Group_236" data-name="Group 236" transform="translate(867.671 155.58)">
      <path id="Path_130" data-name="Path 130" d="M864,132.995a36.48,36.48,0,0,0-10.849,1.615c-3,.924-1.721,5.649,1.3,4.719a31.832,31.832,0,0,1,9.548-1.44c3.15,0,3.154-4.89,0-4.894Z" transform="translate(-851.446 -132.995)" fill="#515151"/>
    </g>
    <g id="Group_237" data-name="Group 237" transform="translate(936.516 121.436)">
      <path id="Path_131" data-name="Path 131" d="M906.427,107.966a28.692,28.692,0,0,0,5.76,32.184,1.836,1.836,0,0,0,2.6-2.6,24.917,24.917,0,0,1-5.185-27.736c.958-2.138-2.2-4.007-3.17-1.853Z" transform="translate(-903.838 -107.011)" fill="#515151"/>
    </g>
    <g id="Group_238" data-name="Group 238" transform="translate(939.55 135.596)">
      <path id="Path_132" data-name="Path 132" d="M906.327,125.854l.346.3a1.667,1.667,0,0,0,1.612.426c4.735-1.666,9.819-3.134,14.293-5.417,1.848-.943.558-3.855-1.4-3.313-4.829,1.342-9.565,3.728-14.173,5.7a1.669,1.669,0,0,0-.82,1.431c-.034.292-.118.641.139.869Z" transform="translate(-906.147 -117.787)" fill="#fffabb"/>
    </g>
  </g>
</svg>
